<?xml version="1.0" encoding="iso-8859-1"?>
<!-- Generator: Adobe Illustrator 19.0.0, SVG Export Plug-In . SVG Version: 6.00 Build 0)  -->
<svg version="1.1" id="Layer_1" xmlns="http://www.w3.org/2000/svg" xmlns:xlink="http://www.w3.org/1999/xlink" x="0px" y="0px"
	 viewBox="0 0 512.466 512.466" style="enable-background:new 0 0 512.466 512.466;" xml:space="preserve">
<g transform="translate(1 1)">
	<path style="fill:#FFE100;" d="M178.2,135.987h-17.067v-34.133H357.4c0-16.213-11.093-29.013-25.6-33.28V67.72
		c0-18.773-15.36-34.133-34.133-34.133h-0.853c-3.413-14.507-17.067-25.6-33.28-25.6c-12.8,0-23.893,7.68-29.867,17.92
		c-5.973-10.24-17.067-17.92-29.867-17.92c-11.947,0-22.187,5.973-28.16,14.507c-4.267-8.533-12.8-14.507-23.04-14.507
		c-14.507,0-25.6,11.093-25.6,25.6v0.853c-2.56,0-5.12-0.853-8.533-0.853c-18.773,0-34.133,15.36-34.133,34.133
		C65.56,67.72,50.2,83.08,50.2,101.853c-18.773,0-34.133,15.36-34.133,34.133S31.427,170.12,50.2,170.12h129.707L178.2,135.987z"/>
	<path style="fill:#FFFFFF;" d="M41.667,135.987c0-18.773,15.36-34.133,34.133-34.133c0-18.773,15.36-34.133,34.133-34.133
		c0-18.773,15.36-34.133,34.133-34.133c3.413,0,5.973,0.853,8.533,0.853v-0.853c0-9.387,5.12-17.92,12.8-22.187
		c-3.413-1.707-8.533-3.413-12.8-3.413c-14.507,0-25.6,11.093-25.6,25.6v0.853c-2.56,0-5.12-0.853-8.533-0.853
		c-18.773,0-34.133,15.36-34.133,34.133C65.56,67.72,50.2,83.08,50.2,101.853c-18.773,0-34.133,15.36-34.133,34.133
		S31.427,170.12,50.2,170.12h25.6C57.027,170.12,41.667,154.76,41.667,135.987"/>
	<polygon style="fill:#63D3FD;" points="161.133,135.987 468.333,135.987 468.333,101.853 161.133,101.853 	"/>
	<polygon style="fill:#3DB9F9;" points="442.733,135.987 468.333,135.987 468.333,101.853 442.733,101.853 	"/>
	<path style="fill:#63D3FD;" d="M179.907,170.12H24.6c-9.387,0-17.067,7.68-17.067,17.067s7.68,17.067,17.067,17.067h157.013
		L179.907,170.12z"/>
	<path style="fill:#FFFFFF;" d="M33.133,187.187c0-9.387,7.68-17.067,17.067-17.067H24.6c-9.387,0-17.067,7.68-17.067,17.067
		s7.68,17.067,17.067,17.067h25.6C40.813,204.253,33.133,196.573,33.133,187.187"/>
	<g>
		<polygon style="fill:#FFE100;" points="67.267,204.253 106.52,204.253 118.467,502.92 79.213,502.92 		"/>
		<path style="fill:#FFE100;" d="M193.56,473.053L178.2,135.987h273.067l-15.36,337.067c-0.853,17.067-14.507,29.867-31.573,29.867
			h-179.2C208.92,502.92,194.413,490.12,193.56,473.053"/>
		<path style="fill:#FFE100;" d="M289.133,317.747V502.92h51.2V317.747c-7.68,3.413-16.213,5.973-25.6,5.973
			C305.347,323.72,296.813,322.013,289.133,317.747"/>
		<path style="fill:#FFE100;" d="M408.6,135.987L391.533,502.92h12.8c17.067,0,30.72-12.8,31.573-29.867l15.36-337.067H408.6z"/>
	</g>
	<path style="fill:#FFA800;" d="M434.2,135.987l-15.36,337.067c-0.853,15.36-11.947,27.307-27.307,29.867v0.853h12.8
		c17.067,0,30.72-12.8,31.573-29.867l15.36-337.92H434.2z"/>
	<g>
		<path style="fill:#FFE100;" d="M193.56,473.053L178.2,135.987h42.667l17.067,366.933h-12.8
			C208.92,502.92,194.413,490.12,193.56,473.053"/>
		<path style="fill:#FFE100;" d="M193.56,473.053l-11.947-268.8H24.6l15.36,274.773c0.853,13.653,11.947,23.893,25.6,23.893h159.573
			C208.92,502.92,194.413,490.12,193.56,473.053"/>
	</g>
	<path style="fill:#FFFFFF;" d="M57.027,479.027l-15.36-274.773H24.6l15.36,274.773c0.853,13.653,11.947,23.893,25.6,23.893h17.067
		C68.973,502.92,57.88,492.68,57.027,479.027"/>
	<g>
		<path style="fill:#63D3FD;" d="M374.467,263.987c0-33.28-26.453-59.733-59.733-59.733S255,230.707,255,263.987
			s26.453,59.733,59.733,59.733S374.467,297.267,374.467,263.987"/>
		<path style="fill:#63D3FD;" d="M184.173,258.867c-23.04,8.533-40.107,30.72-40.107,56.32c0,28.16,19.627,51.2,45.227,58.027
			L184.173,258.867z"/>
	</g>
	<path d="M267.8,59.187c-1.707,0-2.56,0-4.267-0.853c-4.267-2.56-5.12-7.68-3.413-11.947c8.533-12.8,22.187-21.333,37.547-21.333
		c5.12,0,8.533,3.413,8.533,8.533c0,5.12-3.413,8.533-8.533,8.533c-9.387,0-17.92,5.12-22.187,12.8
		C273.773,57.48,271.213,59.187,267.8,59.187z"/>
	<path d="M114.2,93.32c-2.56,0-5.973-1.707-7.68-4.267c-4.267-7.68-12.8-12.8-22.187-12.8c-5.12,0-8.533-3.413-8.533-8.533
		s3.413-8.533,8.533-8.533c15.36,0,29.013,8.533,36.693,21.333c2.56,4.267,0.853,9.387-2.56,11.947
		C116.76,93.32,115.053,93.32,114.2,93.32z"/>
	<path d="M93.72,144.52c-2.56,0-4.267-0.853-5.973-2.56c-3.413-3.413-3.413-8.533,0-11.947c11.093-11.093,26.453-15.36,40.96-11.093
		c4.267,0.853,7.68,5.973,5.973,10.24c-0.853,4.267-5.973,6.827-10.24,5.973c-8.533-2.56-17.92,0-24.747,6.827
		C97.987,143.667,96.28,144.52,93.72,144.52z"/>
	<path d="M152.6,76.253c-1.707,0-3.413-0.853-4.267-1.707c-4.267-2.56-5.12-7.68-2.56-11.947
		c4.267-6.827,14.507-11.947,23.893-11.947S188.44,54.92,193.56,62.6c2.56,4.267,1.707,9.387-2.56,11.947
		c-4.267,2.56-9.387,1.707-11.947-2.56c-1.707-3.413-5.973-4.267-8.533-4.267c-5.12,0-9.387,2.56-10.24,4.267
		C157.72,74.547,155.16,76.253,152.6,76.253z"/>
	<path d="M178.2,38.707c-4.267,0-7.68-3.413-8.533-7.68c-0.853-8.533-8.533-14.507-17.067-14.507c-5.12,0-8.533-3.413-8.533-8.533
		s3.413-8.533,8.533-8.533c17.067,0,31.573,12.8,34.133,29.013c0,5.12-2.56,9.387-7.68,9.387
		C179.053,38.707,178.2,38.707,178.2,38.707z"/>
	<path d="M118.467,511.453H79.213c-4.267,0-8.533-3.413-8.533-8.533L58.733,204.253c0-2.56,0.853-4.267,2.56-5.973
		c1.707-1.707,3.413-2.56,5.973-2.56h39.253c4.267,0,8.533,3.413,8.533,8.533L127,502.92c0,2.56-0.853,4.267-2.56,5.973
		C122.733,510.6,121.027,511.453,118.467,511.453z M86.893,494.387h23.04l-11.093-281.6H75.8L86.893,494.387z"/>
	<path d="M404.333,511.453h-179.2c-21.333,0-39.253-17.067-40.107-38.4l0,0l-15.36-337.067c0-2.56,0.853-4.267,2.56-5.973
		c1.707-1.707,3.413-2.56,5.973-2.56h273.067c2.56,0,4.267,0.853,5.973,2.56c1.707,1.707,2.56,4.267,2.56,5.973l-15.36,337.067
		C442.733,494.387,425.667,511.453,404.333,511.453z M202.093,472.2c0.853,11.947,11.093,22.187,23.04,22.187h179.2
		c11.947,0,22.187-9.387,23.04-22.187l15.36-327.68h-256L202.093,472.2z"/>
	<path d="M314.733,332.253c-37.547,0-68.267-30.72-68.267-68.267s30.72-68.267,68.267-68.267S383,226.44,383,263.987
		S352.28,332.253,314.733,332.253z M314.733,212.787c-28.16,0-51.2,23.04-51.2,51.2s23.04,51.2,51.2,51.2
		c28.16,0,51.2-23.04,51.2-51.2S342.893,212.787,314.733,212.787z"/>
	<path d="M314.733,298.12c-18.773,0-34.133-15.36-34.133-34.133c0-5.12,3.413-8.533,8.533-8.533c5.12,0,8.533,3.413,8.533,8.533
		c0,9.387,7.68,17.067,17.067,17.067c5.12,0,8.533,3.413,8.533,8.533S319.853,298.12,314.733,298.12z"/>
	<path d="M340.333,272.52c-5.12,0-8.533-3.413-8.533-8.533c0-9.387-7.68-17.067-17.067-17.067c-5.12,0-8.533-3.413-8.533-8.533
		c0-5.12,3.413-8.533,8.533-8.533c18.773,0,34.133,15.36,34.133,34.133C348.867,269.107,345.453,272.52,340.333,272.52z"/>
	<path d="M340.333,218.76c-0.853,0-2.56,0-3.413-0.853c-13.653-6.827-29.867-6.827-43.52,0c-2.56,0.853-5.973,0.853-8.533-0.853
		c-2.56-1.707-4.267-4.267-4.267-6.827v-74.24c0-5.12,3.413-8.533,8.533-8.533h51.2c5.12,0,8.533,3.413,8.533,8.533v74.24
		c0,2.56-1.707,5.973-4.267,6.827C343.747,217.907,342.04,218.76,340.333,218.76z M314.733,195.72c5.973,0,11.093,0.853,17.067,2.56
		v-53.76h-34.133v53.76C303.64,196.573,308.76,195.72,314.733,195.72z"/>
	<path d="M340.333,511.453h-51.2c-5.12,0-8.533-3.413-8.533-8.533V317.747c0-2.56,1.707-5.973,4.267-6.827
		c2.56-1.707,5.973-1.707,8.533-0.853c13.653,6.827,29.867,6.827,43.52,0c2.56-0.853,5.973-0.853,8.533,0.853
		s4.267,4.267,4.267,6.827V502.92C348.867,508.04,345.453,511.453,340.333,511.453z M297.667,494.387H331.8V329.693
		c-11.093,2.56-23.04,2.56-34.133,0V494.387z"/>
	<path d="M400.067,110.387c-0.853,0-0.853,0-1.707,0c-4.267-0.853-7.68-5.973-6.827-10.24L408.6,24.2
		c2.56-11.093,11.093-20.48,22.187-23.893s23.04,0,31.573,9.387l46.933,52.053c3.413,3.413,2.56,8.533-0.853,11.947
		c-3.413,3.413-8.533,2.56-11.947-0.853L449.56,20.787c-3.413-4.267-8.533-5.12-13.653-4.267c-5.12,1.707-8.533,5.12-10.24,11.093
		L408.6,103.56C407.747,107.827,404.333,110.387,400.067,110.387z"/>
	<path d="M468.333,144.52h-307.2c-5.12,0-8.533-3.413-8.533-8.533v-34.133c0-5.12,3.413-8.533,8.533-8.533h307.2
		c5.12,0,8.533,3.413,8.533,8.533v34.133C476.867,141.107,473.453,144.52,468.333,144.52z M169.667,127.453H459.8v-17.067H169.667
		V127.453z"/>
	<path d="M404.333,511.453h-12.8c-2.56,0-4.267-0.853-5.973-2.56c-1.707-1.707-2.56-4.267-2.56-5.973l17.067-366.933
		c0-4.267,4.267-8.533,8.533-8.533h42.667c2.56,0,4.267,0.853,5.973,2.56c1.707,1.707,2.56,4.267,2.56,5.973l-15.36,337.067
		C442.733,494.387,425.667,511.453,404.333,511.453z M400.067,494.387h3.413c11.947,0,22.187-9.387,23.04-22.187l16.213-327.68
		h-25.6L400.067,494.387z"/>
	<path d="M237.933,511.453h-12.8c-21.333,0-39.253-17.067-40.107-38.4l0,0l-15.36-337.067c0-2.56,0.853-4.267,2.56-5.973
		c1.707-1.707,3.413-2.56,5.973-2.56h42.667c4.267,0,8.533,3.413,8.533,8.533l17.067,366.933c0,2.56-0.853,4.267-2.56,5.973
		C242.2,510.6,240.493,511.453,237.933,511.453z M202.093,472.2c0.853,11.947,10.24,22.187,23.04,22.187h4.267L212.333,144.52h-25.6
		L202.093,472.2L202.093,472.2z"/>
	<path d="M179.907,178.653H50.2c-23.893,0-42.667-18.773-42.667-42.667c0-20.48,15.36-38.4,34.987-41.813
		c3.413-17.067,17.067-30.72,34.133-34.133c3.413-20.48,21.333-35.84,42.667-34.987c3.413-14.507,17.067-25.6,33.28-25.6
		c9.387,0,17.92,3.413,23.893,10.24c7.68-6.827,17.067-10.24,27.307-10.24c11.093,0,22.187,4.267,29.867,12.8
		c7.68-8.533,18.773-12.8,29.867-12.8c17.067,0,32.427,10.24,39.253,25.6c19.627,2.56,34.987,17.92,37.547,37.547
		c15.36,6.827,25.6,22.187,25.6,39.253c0,5.12-3.413,8.533-8.533,8.533H169.667v17.067h8.533c4.267,0,8.533,3.413,8.533,8.533
		l1.707,34.133c0,2.56-0.853,4.267-2.56,5.973C184.173,177.8,182.467,178.653,179.907,178.653z M118.467,42.12
		c-14.507,0-25.6,11.093-25.6,25.6c0,5.12-3.413,8.533-8.533,8.533c-14.507,0-25.6,11.093-25.6,25.6c0,5.12-3.413,8.533-8.533,8.533
		c-14.507,0-25.6,11.093-25.6,25.6s11.093,25.6,25.6,25.6h120.32l-0.853-17.067h-8.533c-5.12,0-8.533-3.413-8.533-8.533v-34.133
		c0-5.12,3.413-8.533,8.533-8.533H347.16c-2.56-7.68-9.387-13.653-17.92-16.213c-3.413-0.853-5.973-4.267-5.973-8.533
		c0,0,0-0.853,0-1.707c0-13.653-11.093-24.747-25.6-24.747c0,0,0,0-0.853,0c-4.267,0-7.68-2.56-8.533-6.827
		c-2.56-11.093-12.8-18.773-24.747-18.773c-9.387,0-17.92,5.12-22.187,13.653c-3.413,5.12-11.947,5.12-15.36,0
		c-4.267-8.533-12.8-13.653-22.187-13.653c-8.533,0-16.213,4.267-21.333,11.093c-1.707,2.56-4.267,4.267-7.68,3.413
		c-3.413,0-5.973-1.707-6.827-5.12c-2.56-5.973-8.533-9.387-15.36-9.387c-9.387,0-17.067,7.68-17.067,17.067c0,0,0,0,0,0.853
		c0,2.56-0.853,5.12-3.413,6.827c-1.707,1.707-5.12,2.56-7.68,1.707C122.733,42.12,120.173,42.12,118.467,42.12z"/>
	<path d="M181.613,212.787H24.6c-14.507,0-25.6-11.093-25.6-25.6s11.093-25.6,25.6-25.6h155.307c4.267,0,8.533,3.413,8.533,8.533
		l1.707,34.133c0,2.56-0.853,4.267-2.56,5.973C185.88,211.933,183.32,212.787,181.613,212.787z M24.6,178.653
		c-5.12,0-8.533,3.413-8.533,8.533s3.413,8.533,8.533,8.533h147.627l-0.853-17.067H24.6z"/>
	<path d="M225.133,511.453H65.56c-17.92,0-33.28-14.507-34.133-32.427l-15.36-273.92c0-2.56,0.853-4.267,2.56-5.973
		c1.707-2.56,3.413-3.413,5.973-3.413h157.013c4.267,0,8.533,3.413,8.533,8.533l12.8,268.8c0.853,11.947,10.24,22.187,23.04,22.187
		c5.12,0,8.533,3.413,8.533,8.533C234.52,508.893,230.253,511.453,225.133,511.453z M33.987,212.787l15.36,265.387
		c0.853,9.387,7.68,16.213,17.067,16.213h126.293c-4.267-5.973-6.827-12.8-6.827-21.333l0,0l-12.8-260.267H33.987z"/>
	<path d="M189.293,381.747c-0.853,0-1.707,0-1.707,0c-30.72-7.68-51.2-34.987-51.2-66.56c0-29.013,17.92-54.613,45.227-64
		c2.56-0.853,5.12-0.853,7.68,0.853c2.56,1.707,3.413,4.267,3.413,6.827l5.12,114.347c0,2.56-0.853,5.12-3.413,6.827
		C192.707,380.893,191,381.747,189.293,381.747z M175.64,272.52c-14.507,9.387-23.04,25.6-23.04,42.667
		c0,19.627,11.093,36.693,27.307,45.227L175.64,272.52z"/>
</g>
<g>
</g>
<g>
</g>
<g>
</g>
<g>
</g>
<g>
</g>
<g>
</g>
<g>
</g>
<g>
</g>
<g>
</g>
<g>
</g>
<g>
</g>
<g>
</g>
<g>
</g>
<g>
</g>
<g>
</g>
</svg>
